<svg xmlns="http://www.w3.org/2000/svg" xmlns:xlink="http://www.w3.org/1999/xlink" width="2000" zoomAndPan="magnify" viewBox="0 0 1500 1499.999933" height="2000" preserveAspectRatio="xMidYMid meet" version="1.0"><defs><g/><clipPath id="be6309f08c"><rect x="0" width="233" y="0" height="520"/></clipPath><clipPath id="36012c7b22"><path d="M 330.550781 573.292969 L 647.648438 573.292969 L 647.648438 890.390625 L 330.550781 890.390625 Z M 330.550781 573.292969 " clip-rule="nonzero"/></clipPath><clipPath id="b0ed75bd6a"><path d="M 339.550781 573.292969 L 638.648438 573.292969 C 641.035156 573.292969 643.324219 574.242188 645.011719 575.929688 C 646.699219 577.617188 647.648438 579.90625 647.648438 582.292969 L 647.648438 881.390625 C 647.648438 883.777344 646.699219 886.066406 645.011719 887.753906 C 643.324219 889.441406 641.035156 890.390625 638.648438 890.390625 L 339.550781 890.390625 C 337.164062 890.390625 334.875 889.441406 333.183594 887.753906 C 331.496094 886.066406 330.550781 883.777344 330.550781 881.390625 L 330.550781 582.292969 C 330.550781 579.90625 331.496094 577.617188 333.183594 575.929688 C 334.875 574.242188 337.164062 573.292969 339.550781 573.292969 Z M 339.550781 573.292969 " clip-rule="nonzero"/></clipPath><clipPath id="c749b18f6d"><path d="M 0.550781 0.292969 L 317.648438 0.292969 L 317.648438 317.390625 L 0.550781 317.390625 Z M 0.550781 0.292969 " clip-rule="nonzero"/></clipPath><clipPath id="a2bc82b572"><path d="M 9.550781 0.292969 L 308.648438 0.292969 C 311.035156 0.292969 313.324219 1.242188 315.011719 2.929688 C 316.699219 4.617188 317.648438 6.90625 317.648438 9.292969 L 317.648438 308.390625 C 317.648438 310.777344 316.699219 313.066406 315.011719 314.753906 C 313.324219 316.441406 311.035156 317.390625 308.648438 317.390625 L 9.550781 317.390625 C 7.164062 317.390625 4.875 316.441406 3.183594 314.753906 C 1.496094 313.066406 0.550781 310.777344 0.550781 308.390625 L 0.550781 9.292969 C 0.550781 6.90625 1.496094 4.617188 3.183594 2.929688 C 4.875 1.242188 7.164062 0.292969 9.550781 0.292969 Z M 9.550781 0.292969 " clip-rule="nonzero"/></clipPath><clipPath id="ec8c6c9ce5"><rect x="0" width="318" y="0" height="318"/></clipPath><clipPath id="0ff94c1ce8"><rect x="0" width="626" y="0" height="104"/></clipPath><clipPath id="f34cfcc28b"><path d="M 322.074219 566.246094 L 694 566.246094 L 694 917 L 322.074219 917 Z M 322.074219 566.246094 " clip-rule="nonzero"/></clipPath><clipPath id="7811fbdf49"><rect x="0" width="802" y="0" height="520"/></clipPath></defs><g transform="matrix(1, 0, 0, 1, 97, 451)"><g clip-path="url(#be6309f08c)"><g fill="#0795ff" fill-opacity="1"><g transform="translate(1.653804, 438.627341)"><g><path d="M 11.484375 0 C 7.203125 0 5.0625 -2.132812 5.0625 -6.40625 L 5.0625 -309.5625 C 5.0625 -313.832031 7.203125 -315.96875 11.484375 -315.96875 L 176.21875 -315.96875 C 190.164062 -315.96875 201.414062 -311.691406 209.96875 -303.140625 C 218.519531 -294.585938 222.796875 -283.335938 222.796875 -269.390625 L 222.796875 -134.6875 C 222.796875 -120.738281 218.519531 -109.488281 209.96875 -100.9375 C 201.414062 -92.382812 190.164062 -88.109375 176.21875 -88.109375 L 120.859375 -88.109375 C 118.609375 -88.109375 116.523438 -89.007812 114.609375 -90.8125 C 112.691406 -92.613281 111.847656 -94.640625 112.078125 -96.890625 L 134.359375 -300.78125 C 134.804688 -304.15625 133.34375 -305.84375 129.96875 -305.84375 C 126.59375 -305.84375 124.679688 -304.15625 124.234375 -300.78125 L 93.171875 -17.546875 C 92.722656 -12.828125 90.863281 -8.722656 87.59375 -5.234375 C 84.332031 -1.742188 80.34375 0 75.625 0 Z M 11.484375 0 "/></g></g></g></g></g><g clip-path="url(#36012c7b22)"><g clip-path="url(#b0ed75bd6a)"><g transform="matrix(1, 0, 0, 1, 330, 573)"><g clip-path="url(#ec8c6c9ce5)"><g clip-path="url(#c749b18f6d)"><g clip-path="url(#a2bc82b572)"><path fill="#0795ff" d="M 0.550781 0.292969 L 317.648438 0.292969 L 317.648438 317.390625 L 0.550781 317.390625 Z M 0.550781 0.292969 " fill-opacity="1" fill-rule="nonzero"/></g></g></g></g></g></g><g transform="matrix(1, 0, 0, 1, 476, 892)"><g clip-path="url(#0ff94c1ce8)"><g fill="#0795ff" fill-opacity="1"><g transform="translate(3.515418, 80.378727)"><g><path d="M 23.734375 0.421875 C 16.390625 0.421875 10.785156 -1.910156 6.921875 -6.578125 C 3.765625 -10.390625 2.1875 -15.097656 2.1875 -20.703125 L 2.1875 -20.984375 C 2.1875 -26.640625 3.765625 -31.375 6.921875 -35.1875 C 10.734375 -39.800781 16.316406 -42.109375 23.671875 -42.109375 C 29.179688 -42.109375 33.722656 -40.867188 37.296875 -38.390625 C 40.878906 -35.921875 43.023438 -32.613281 43.734375 -28.46875 L 33.84375 -28.46875 C 33.601562 -30.59375 32.578125 -32.207031 30.765625 -33.3125 C 28.953125 -34.414062 26.585938 -34.96875 23.671875 -34.96875 C 19.992188 -34.96875 17.082031 -33.648438 14.9375 -31.015625 C 12.800781 -28.378906 11.734375 -24.941406 11.734375 -20.703125 C 11.734375 -16.503906 12.816406 -13.125 14.984375 -10.5625 C 17.148438 -8 20.046875 -6.71875 23.671875 -6.71875 C 26.960938 -6.71875 29.523438 -7.335938 31.359375 -8.578125 C 33.203125 -9.828125 34.617188 -11.914062 35.609375 -14.84375 L 27.765625 -14.84375 L 27.765625 -21.6875 L 43.59375 -21.6875 L 43.59375 0 L 36.8125 0 L 36.390625 -3.953125 C 32.992188 -1.035156 28.773438 0.421875 23.734375 0.421875 Z M 23.734375 0.421875 "/></g></g></g><g fill="#0795ff" fill-opacity="1"><g transform="translate(71.691178, 80.378727)"><g><path d="M 17.09375 0 L 17.09375 -12.78125 L 1.125 -41.328125 L 11.875 -41.328125 L 21.90625 -23.109375 L 31.859375 -41.40625 L 42.609375 -41.40625 L 26.640625 -12.859375 L 26.640625 0 Z M 17.09375 0 "/></g></g></g><g fill="#0795ff" fill-opacity="1"><g transform="translate(136.617683, 80.378727)"><g><path d="M 2.890625 0 L 3.53125 -9.6875 C 3.625 -11.519531 3.765625 -13.847656 3.953125 -16.671875 C 3.953125 -16.722656 4.425781 -24.941406 5.375 -41.328125 L 21.40625 -41.328125 L 30.03125 -14.203125 L 38.65625 -41.328125 L 54.6875 -41.328125 C 55.0625 -35.535156 55.34375 -30.753906 55.53125 -26.984375 C 55.90625 -20.160156 56.257812 -14.394531 56.59375 -9.6875 C 56.644531 -8.738281 56.703125 -7.566406 56.765625 -6.171875 C 56.835938 -4.785156 56.921875 -3.46875 57.015625 -2.21875 C 57.109375 -0.976562 57.15625 -0.238281 57.15625 0 L 47.484375 0 L 45.5 -33.0625 L 34.96875 0 L 25.078125 0 L 14.5625 -33.0625 L 12.578125 0 Z M 2.890625 0 "/></g></g></g><g fill="#0795ff" fill-opacity="1"><g transform="translate(217.861174, 80.378727)"><g/></g></g><g fill="#0795ff" fill-opacity="1"><g transform="translate(252.414124, 80.378727)"><g><path d="M 23.671875 0.421875 C 16.367188 0.421875 10.785156 -1.910156 6.921875 -6.578125 C 3.765625 -10.390625 2.1875 -15.097656 2.1875 -20.703125 L 2.1875 -20.984375 C 2.1875 -26.640625 3.765625 -31.375 6.921875 -35.1875 C 10.734375 -39.800781 16.316406 -42.109375 23.671875 -42.109375 C 29.179688 -42.109375 33.722656 -40.867188 37.296875 -38.390625 C 40.878906 -35.921875 43.023438 -32.613281 43.734375 -28.46875 L 33.84375 -28.46875 C 33.601562 -30.59375 32.578125 -32.207031 30.765625 -33.3125 C 28.953125 -34.414062 26.585938 -34.96875 23.671875 -34.96875 C 19.992188 -34.96875 17.082031 -33.648438 14.9375 -31.015625 C 12.800781 -28.378906 11.734375 -24.941406 11.734375 -20.703125 C 11.734375 -16.503906 12.816406 -13.125 14.984375 -10.5625 C 17.148438 -8 20.046875 -6.71875 23.671875 -6.71875 C 26.585938 -6.71875 28.953125 -7.269531 30.765625 -8.375 C 32.578125 -9.476562 33.601562 -11.09375 33.84375 -13.21875 L 43.734375 -13.21875 C 43.023438 -9.113281 40.867188 -5.8125 37.265625 -3.3125 C 33.660156 -0.820312 29.128906 0.421875 23.671875 0.421875 Z M 23.671875 0.421875 "/></g></g></g><g fill="#0795ff" fill-opacity="1"><g transform="translate(319.530389, 80.378727)"><g><path d="M 3.609375 0 L 3.609375 -41.328125 L 34.0625 -41.328125 L 34.0625 -34.125 L 13.140625 -34.125 L 13.140625 -24.015625 L 29.390625 -24.015625 L 29.390625 -16.8125 L 13.140625 -16.8125 L 13.140625 -7.203125 L 34.0625 -7.203125 L 34.0625 0 Z M 3.609375 0 "/></g></g></g><g fill="#0795ff" fill-opacity="1"><g transform="translate(377.322654, 80.378727)"><g><path d="M 3.609375 0 L 3.609375 -41.328125 L 15.125 -41.328125 L 33.421875 -11.3125 L 33.421875 -41.328125 L 42.953125 -41.328125 L 42.953125 0 L 29.953125 0 L 13.140625 -27.484375 L 13.140625 0 Z M 3.609375 0 "/></g></g></g><g fill="#0795ff" fill-opacity="1"><g transform="translate(445.074591, 80.378727)"><g><path d="M 13.640625 0 L 13.640625 -34.125 L 1.125 -34.125 L 1.125 -41.328125 L 35.6875 -41.328125 L 35.6875 -34.125 L 23.171875 -34.125 L 23.171875 0 Z M 13.640625 0 "/></g></g></g><g fill="#0795ff" fill-opacity="1"><g transform="translate(503.078766, 80.378727)"><g><path d="M 3.609375 0 L 3.609375 -41.328125 L 34.0625 -41.328125 L 34.0625 -34.125 L 13.140625 -34.125 L 13.140625 -24.015625 L 29.390625 -24.015625 L 29.390625 -16.8125 L 13.140625 -16.8125 L 13.140625 -7.203125 L 34.0625 -7.203125 L 34.0625 0 Z M 3.609375 0 "/></g></g></g><g fill="#0795ff" fill-opacity="1"><g transform="translate(560.871031, 80.378727)"><g><path d="M 3.609375 0 L 3.609375 -41.328125 L 22.328125 -41.328125 C 27.742188 -41.328125 31.910156 -39.9375 34.828125 -37.15625 C 37.753906 -34.382812 39.21875 -30.972656 39.21875 -26.921875 C 39.21875 -24.421875 38.53125 -21.976562 37.15625 -19.59375 C 35.789062 -17.21875 33.835938 -15.421875 31.296875 -14.203125 L 37.9375 0 L 27.421875 0 L 21.625 -12.359375 L 13.140625 -12.359375 L 13.140625 0 Z M 13.140625 -19.578125 L 22.46875 -19.578125 C 24.582031 -20.234375 26.3125 -20.234375 27.65625 -21.546875 C 29 -22.867188 29.671875 -24.632812 29.671875 -26.84375 C 29.671875 -29.0625 29 -30.828125 27.65625 -32.140625 C 26.3125 -33.460938 24.582031 -34.125 22.46875 -34.125 L 13.140625 -34.125 Z M 13.140625 -19.578125 "/></g></g></g></g></g><g clip-path="url(#f34cfcc28b)"><path fill="#ffffff" d="M 575.902344 566.464844 C 567.96875 566.574219 556.691406 567.980469 541.183594 570.757812 C 532.722656 572.273438 530.640625 573.011719 528.40625 575.273438 C 525.851562 577.859375 525.726562 578.449219 525.441406 588.988281 C 525.152344 599.804688 525.191406 600.027344 527.5625 601.574219 C 528.890625 602.4375 533.328125 606.089844 537.425781 609.683594 C 547 618.082031 548.667969 618.175781 558.277344 610.871094 C 562.457031 607.691406 562.671875 606.5625 559.113281 606.5 C 557.320312 606.472656 551.335938 603.75 552.871094 603.664062 C 553.210938 603.644531 556.875 604.769531 561.019531 606.160156 C 573.839844 609.339844 578.828125 595.9375 588.988281 591.128906 C 609.867188 595.699219 602.046875 624.0625 618.679688 648.246094 C 628.152344 665.9375 636.214844 668.210938 657.695312 659.257812 C 658.984375 658.71875 659.34375 658.820312 658.867188 659.585938 C 657.804688 661.308594 643.164062 665.589844 638.339844 665.589844 C 632.285156 665.589844 628.230469 663.632812 624.175781 658.753906 L 620.699219 654.566406 C 602.398438 651.789062 590.324219 659.953125 585.015625 668.785156 C 584.082031 669.90625 564.03125 683.695312 562.175781 690.359375 C 561.148438 673.542969 580.753906 668.960938 579.503906 668.785156 C 562.515625 671.882812 520.375 670.15625 509.636719 686.101562 C 499.023438 669.105469 510.757812 651.84375 512.675781 645.191406 C 515.082031 637.09375 513.613281 628.359375 509.289062 621.320312 C 508.726562 618.949219 506.910156 616.894531 505.140625 615.203125 C 502.195312 612.390625 498.390625 610.535156 495.730469 607.46875 C 492.910156 604.21875 491.195312 599.640625 486.710938 598.125 C 479.066406 595.542969 470.894531 597.949219 463.695312 600.703125 C 459.46875 602.320312 455.089844 603.449219 450.523438 603.753906 C 446.65625 604.007812 438.886719 599.742188 438.933594 603.597656 C 438.964844 605.941406 447.046875 602.023438 444.800781 603.378906 C 442.691406 604.652344 440.511719 605.320312 437.820312 605.703125 C 433.191406 606.355469 428.566406 606.90625 423.863281 607.042969 C 422.839844 607.074219 421.140625 606.453125 423.25 607.191406 C 426.589844 608.363281 429.273438 610.351562 432.785156 611.640625 C 436.253906 612.914062 430.582031 613.574219 429.316406 613.667969 C 422.019531 614.203125 414.136719 616.027344 407.371094 613.1875 C 406.003906 612.613281 405.039062 612.707031 406.207031 614.257812 C 408.71875 617.582031 413.128906 618.453125 416.898438 619.652344 C 418.363281 620.121094 422.308594 620.796875 422.0625 620.820312 C 417.230469 621.253906 413.65625 626.097656 408.628906 625.382812 C 407.246094 625.183594 406.121094 625.277344 408 626.089844 C 415.339844 629.261719 421.953125 634.554688 429.789062 636.394531 C 428.449219 639.636719 428.703125 642.464844 430.421875 646.960938 C 431.96875 651.019531 431.949219 651.292969 429.773438 655.945312 C 428.539062 658.582031 421.414062 662.9375 420.171875 663.75 C 417.140625 665.734375 424.851562 665.988281 428.324219 669.625 C 430.898438 672.316406 429.695312 676.128906 428.746094 678.519531 C 434.371094 677.871094 432.339844 678.851562 437.15625 680.117188 C 432.601562 680.625 429.882812 682.003906 430.753906 683.335938 C 433.625 687.722656 437.582031 692.234375 443.953125 699.039062 C 455.027344 695.175781 458.785156 690.683594 461.390625 692.03125 C 468.253906 695.582031 468.976562 699.566406 464.226562 707.671875 C 461.398438 712.496094 459.804688 713.28125 448.667969 715.335938 C 432.03125 718.40625 417.898438 727.515625 412.808594 738.453125 C 406.960938 746.785156 413.277344 763.339844 413.277344 763.339844 C 413.277344 763.339844 404.578125 754.898438 407.714844 742.925781 C 391.386719 748.699219 381.128906 737.222656 365.238281 754.746094 C 361.800781 759.9375 361.214844 758.796875 364.464844 753.25 C 366.835938 749.207031 367.019531 748.210938 366.425781 742.667969 C 366.066406 739.300781 364.496094 732.890625 362.933594 728.417969 C 359.554688 718.738281 357.59375 705.601562 358.558594 699.15625 C 359.117188 695.4375 359.511719 694.722656 360.542969 695.578125 C 365.257812 699.492188 372.820312 698.472656 377.257812 693.328125 C 378.726562 691.621094 381.125 689.625 382.582031 688.882812 C 387.269531 686.507812 389.128906 680.914062 389.128906 669.171875 C 389.128906 659.253906 394.351562 653.316406 390.671875 654.164062 C 385.667969 655.3125 361.390625 639.519531 358.21875 642.402344 C 349.484375 645.410156 343.84375 670.820312 336.367188 677.789062 C 336.402344 695.421875 333.683594 714.273438 329.222656 728.515625 C 322.6875 749.015625 322.007812 752.355469 322.015625 763.851562 C 322.023438 775.675781 324.417969 786.582031 328.695312 794.257812 C 330.003906 796.605469 330.835938 799.277344 330.546875 800.195312 C 330.15625 801.425781 331.050781 802.375 333.949219 803.804688 C 337.835938 805.730469 337.972656 805.730469 346.804688 803.960938 C 370.851562 796.488281 380 824.738281 419.59375 799.871094 C 425.804688 806.289062 411.089844 832.277344 422.75 838.867188 C 422.75 838.867188 446.367188 836.675781 452.039062 834.121094 C 448.980469 840.742188 422.792969 846.15625 422.792969 846.15625 C 412.8125 853.621094 431.171875 882.082031 416.394531 905.359375 C 416.3125 905.492188 416.234375 905.609375 416.234375 905.632812 C 416.234375 907.101562 438.183594 894.230469 452.371094 895.734375 C 460.625 896.609375 487 902.730469 495.191406 910.585938 C 508.90625 923.738281 536.9375 912.128906 543.878906 908.800781 C 547.964844 892.269531 540.625 860.792969 529.644531 848.316406 C 526.917969 845.292969 526.464844 844.171875 526.957031 841.703125 C 527.382812 839.570312 527.210938 838.835938 526.351562 839.113281 C 514.578125 851.339844 503.265625 857.121094 500.464844 879.019531 C 500.457031 849.527344 519.222656 845.21875 525.082031 837.074219 C 534.375 824.167969 550.792969 808.988281 563.726562 799.355469 C 566.5625 797.242188 528.703125 794.886719 528.542969 775.296875 C 532.441406 794.195312 575.515625 791.25 577.476562 789.613281 C 584.707031 783.570312 591.957031 774.796875 598.179688 764.445312 C 602.820312 756.71875 608.558594 744.320312 607.828125 743.59375 C 604.253906 746.558594 595.828125 750.453125 593.917969 745.890625 C 597.507812 748.882812 605.6875 740.660156 610.085938 739.242188 C 640.722656 731.210938 656.347656 714.644531 676.199219 683.898438 C 681.152344 676.230469 692.625 653.625 693.527344 649.765625 C 696.457031 637.207031 673.714844 610.132812 643.742188 590.496094 C 620.75 575.433594 606.265625 569.804688 582.75 566.785156 C 580.816406 566.539062 578.546875 566.429688 575.902344 566.46875 Z M 575.902344 566.464844 " fill-opacity="1" fill-rule="nonzero"/></g><g transform="matrix(1, 0, 0, 1, 650, 451)"><g clip-path="url(#7811fbdf49)"><g fill="#0795ff" fill-opacity="1"><g transform="translate(0.769235, 438.627341)"><g><path d="M 247.4375 -315.96875 L 329.8125 -315.96875 C 334.09375 -315.96875 336.234375 -313.832031 336.234375 -309.5625 L 336.234375 -46.578125 C 336.234375 -32.628906 332.179688 -21.378906 324.078125 -12.828125 C 315.972656 -4.273438 304.945312 0 291 0 L 233.609375 0 C 228.429688 0 226.179688 -2.585938 226.859375 -7.765625 L 242.046875 -149.546875 C 242.492188 -152.921875 241.03125 -154.609375 237.65625 -154.609375 C 234.28125 -154.609375 232.367188 -152.921875 231.921875 -149.546875 L 216.390625 -7.765625 C 215.710938 -2.585938 212.785156 0 207.609375 0 L 117.8125 0 C 112.632812 0 110.382812 -2.585938 111.0625 -7.765625 L 126.59375 -149.546875 C 127.039062 -152.921875 125.578125 -154.609375 122.203125 -154.609375 C 118.828125 -154.609375 116.914062 -152.921875 116.46875 -149.546875 L 100.9375 -7.765625 C 100.257812 -2.585938 97.332031 0 92.15625 0 L 50.296875 0 C 36.347656 0 25.320312 -4.273438 17.21875 -12.828125 C 9.113281 -21.378906 5.0625 -32.628906 5.0625 -46.578125 L 5.0625 -309.5625 C 5.0625 -313.832031 7.203125 -315.96875 11.484375 -315.96875 L 106.34375 -315.96875 C 111.507812 -315.96875 113.867188 -313.378906 113.421875 -308.203125 L 94.515625 -134.359375 C 94.066406 -130.984375 95.53125 -129.296875 98.90625 -129.296875 C 102.28125 -129.296875 104.195312 -130.984375 104.65625 -134.359375 L 123.546875 -308.203125 C 124.003906 -313.378906 126.820312 -315.96875 132 -315.96875 L 221.78125 -315.96875 C 226.957031 -315.96875 229.320312 -313.378906 228.875 -308.203125 L 209.96875 -134.359375 C 209.519531 -130.984375 210.984375 -129.296875 214.359375 -129.296875 C 217.734375 -129.296875 219.644531 -130.984375 220.09375 -134.359375 L 239 -308.203125 C 239.457031 -313.378906 242.269531 -315.96875 247.4375 -315.96875 Z M 247.4375 -315.96875 "/></g></g></g><g fill="#0795ff" fill-opacity="1"><g transform="translate(342.042348, 438.627341)"><g><path d="M 15.1875 -315.96875 L 216.390625 -315.96875 C 220.660156 -315.96875 222.796875 -313.832031 222.796875 -309.5625 L 222.796875 -186.6875 C 222.796875 -182.40625 220.660156 -180.265625 216.390625 -180.265625 L 130.640625 -180.265625 C 128.390625 -180.265625 126.304688 -181.164062 124.390625 -182.96875 C 122.484375 -184.769531 121.640625 -186.796875 121.859375 -189.046875 L 134.015625 -300.78125 C 134.460938 -304.15625 133 -305.84375 129.625 -305.84375 C 126.25 -305.84375 124.335938 -304.15625 123.890625 -300.78125 L 110.390625 -176.21875 C 109.941406 -172.164062 111.851562 -170.140625 116.125 -170.140625 L 207.609375 -170.140625 C 210.984375 -170.140625 212.671875 -168.453125 212.671875 -165.078125 C 212.671875 -161.703125 210.984375 -160.015625 207.609375 -160.015625 L 115.109375 -160.015625 C 110.835938 -160.015625 108.476562 -157.988281 108.03125 -153.9375 L 92.828125 -15.1875 C 92.378906 -11.8125 93.84375 -10.125 97.21875 -10.125 C 100.59375 -10.125 102.507812 -11.8125 102.96875 -15.1875 L 116.796875 -141.109375 C 117.253906 -143.585938 118.269531 -145.671875 119.84375 -147.359375 C 121.414062 -149.046875 123.328125 -149.890625 125.578125 -149.890625 L 216.390625 -149.890625 C 220.660156 -149.890625 222.796875 -147.75 222.796875 -143.46875 L 222.796875 -6.40625 C 222.796875 -2.132812 220.660156 0 216.390625 0 L 12.828125 0 C 7.648438 0 5.0625 -2.585938 5.0625 -7.765625 L 5.0625 -306.1875 C 5.0625 -312.707031 8.4375 -315.96875 15.1875 -315.96875 Z M 15.1875 -315.96875 "/></g></g></g><g fill="#0795ff" fill-opacity="1"><g transform="translate(570.232883, 438.627341)"><g><path d="M 134.015625 -149.890625 L 215.71875 -149.890625 C 220.894531 -149.890625 223.484375 -147.300781 223.484375 -142.125 L 223.484375 -7.765625 C 223.484375 -2.585938 220.894531 0 215.71875 0 L 153.265625 0 C 144.710938 0 136.722656 -2.078125 129.296875 -6.234375 C 121.867188 -10.398438 116.015625 -16.023438 111.734375 -23.109375 C 107.460938 -30.203125 105.773438 -38.023438 109.296875 -46.578125 L 134.359375 -299.4375 C 134.578125 -302.582031 133.675781 -304.492188 131.65625 -305.171875 C 130.082031 -305.847656 128.503906 -305.566406 126.921875 -304.328125 C 125.347656 -303.085938 124.453125 -301.34375 124.234375 -299.09375 L 92.5 -7.765625 C 91.820312 -2.585938 88.894531 0 83.71875 0 L 11.484375 0 C 7.203125 0 5.0625 -2.132812 5.0625 -6.40625 L 5.0625 -309.5625 C 5.0625 -313.832031 7.203125 -315.96875 11.484375 -315.96875 L 176.890625 -315.96875 C 190.847656 -315.96875 202.101562 -311.691406 210.65625 -303.140625 C 219.207031 -294.585938 223.484375 -283.335938 223.484375 -269.390625 L 223.484375 -206.59375 C 223.484375 -192.644531 219.207031 -181.394531 210.65625 -172.84375 C 202.101562 -164.289062 190.847656 -160.015625 176.890625 -160.015625 L 134.015625 -160.015625 C 130.640625 -160.015625 128.953125 -158.328125 128.953125 -154.953125 C 128.953125 -151.578125 130.640625 -149.890625 134.015625 -149.890625 Z M 134.015625 -149.890625 "/></g></g></g></g></g></svg>
